<svg width="263" height="77" viewBox="0 0 263 77" fill="none" xmlns="http://www.w3.org/2000/svg">
<g clip-path="url(#clip0_11996_94)" filter="url(#filter0_d_11996_94)">
<path d="M115.49 2.00165C115.49 0.89617 116.385 0 117.491 0H145.509C146.615 0 147.51 0.89617 147.51 2.00165V30.0248C147.51 31.1303 146.615 32.0264 145.509 32.0264H117.491C116.385 32.0264 115.49 31.1303 115.49 30.0248V2.00165Z" fill="#0278FE"/>
<path d="M147.51 6.00488H115.49V8.00653H147.51V6.00488Z" fill="#2A2C2F"/>
<path d="M128.498 6.00488H126.497V32.0263H128.498V6.00488Z" fill="#2A2C2F"/>
<path d="M122.807 68.8007L123.645 66.0143H128.45L129.288 68.8007H133.553L128.749 54.2432H123.347L118.543 68.8007H122.807ZM124.541 63.0572L125.991 58.2522H126.105L127.555 63.0572H124.541Z" fill="white"/>
<path d="M134.955 68.8007H138.906V63.9955H140.27L142.829 68.8007H147.121L144.164 63.37C145.714 62.6237 146.638 61.2092 146.638 59.1904C146.638 56.0913 144.471 54.2432 141.237 54.2432H134.955V68.8007ZM138.906 60.9249V57.3992H140.299C141.685 57.3992 142.516 57.9394 142.516 59.1904C142.516 60.4344 141.685 60.9249 140.299 60.9249H138.906Z" fill="white"/>
<path d="M147.924 57.4276H152.302V68.8007H156.197V57.4276H160.574V54.2432H147.924V57.4276Z" fill="white"/>
<path d="M175.501 59.0486H179.494C179.189 56.1271 176.538 54.0444 173.098 54.0444C169.175 54.0444 165.991 56.7455 165.991 61.5506C165.991 66.1566 168.877 68.9999 173.127 68.9999C176.936 68.9999 179.665 66.6684 179.665 62.6879V60.6692H173.212V63.484H175.856C175.821 64.7493 174.925 65.5595 173.155 65.5595C171.109 65.5595 170.057 64.0527 170.057 61.4937C170.057 58.9703 171.194 57.4848 173.184 57.4848C174.42 57.4848 175.259 58.0533 175.501 59.0486Z" fill="white"/>
<path d="M184.839 68.8007L185.677 66.0143H190.482L191.321 68.8007H195.585L190.781 54.2432H185.379L180.575 68.8007H184.839ZM186.573 63.0572L188.023 58.2522H188.137L189.587 63.0572H186.573Z" fill="white"/>
<path d="M196.986 68.8007H206.823V65.6162H200.938V54.2432H196.986V68.8007Z" fill="white"/>
<path d="M208.419 68.8007H218.255V65.6162H212.371V54.2432H208.419V68.8007Z" fill="white"/>
<path d="M219.853 68.8007H230.314V65.6162H223.804V63.1142H229.802V59.9297H223.804V57.4276H230.342V54.2432H219.853V68.8007Z" fill="white"/>
<path d="M232.302 68.8007H236.253V63.9955H237.617L240.176 68.8007H244.469L241.512 63.37C243.062 62.6237 243.985 61.2092 243.985 59.1904C243.985 56.0913 241.818 54.2432 238.584 54.2432H232.302V68.8007ZM236.253 60.9249V57.3992H237.646C239.032 57.3992 239.864 57.9394 239.864 59.1904C239.864 60.4344 239.032 60.9249 237.646 60.9249H236.253Z" fill="white"/>
<path d="M244.389 54.2432L249.733 64.223V68.8007H253.656V64.223L259 54.2432H254.594L251.751 60.1571H251.637L248.795 54.2432H244.389Z" fill="white"/>
<path d="M113.125 54.2432V68.8006H109.828L104.569 61.1522H104.484V68.8006H100.532V54.2432H103.887L109.06 61.8631H109.174V54.2432H113.125Z" fill="white"/>
<path d="M88.0839 68.8006V54.2432H98.5735V57.4276H92.0352V59.9297H98.0334V63.1141H92.0352V65.6161H98.5451V68.8006H88.0839Z" fill="white"/>
<path d="M73.947 57.4276V54.2432H86.5971V57.4276H82.2193V68.8006H78.3248V57.4276H73.947Z" fill="white"/>
<path d="M61.8953 68.8006V54.2432H72.3849V57.4276H65.8466V59.9297H71.8448V63.1141H65.8466V65.6161H72.3565V68.8006H61.8953Z" fill="white"/>
<path d="M50.4618 68.8006V54.2432H54.4132V65.6161H60.2976V68.8006H50.4618Z" fill="white"/>
<path d="M37.3284 68.8006V54.2432H43.6108C44.691 54.2432 45.6362 54.4564 46.4464 54.8829C47.2565 55.3094 47.8867 55.9088 48.3368 56.6812C48.7869 57.4537 49.0119 58.3564 49.0119 59.3894C49.0119 60.432 48.7798 61.3347 48.3155 62.0976C47.8559 62.8606 47.2092 63.4482 46.3753 63.8604C45.5462 64.2727 44.5773 64.4788 43.4686 64.4788H39.7162V61.4081H42.6727C43.137 61.4081 43.5326 61.3276 43.8595 61.1665C44.1912 61.0006 44.4446 60.766 44.6199 60.4628C44.8 60.1595 44.89 59.8017 44.89 59.3894C44.89 58.9724 44.8 58.617 44.6199 58.3232C44.4446 58.0247 44.1912 57.7972 43.8595 57.6408C43.5326 57.4797 43.137 57.3992 42.6727 57.3992H41.2797V68.8006H37.3284Z" fill="white"/>
<path d="M35.4563 54.2432V68.8006H31.5049V54.2432H35.4563Z" fill="white"/>
<path d="M18.137 68.8006V54.2432H24.4194C25.4996 54.2432 26.4448 54.4398 27.255 54.8331C28.0651 55.2265 28.6953 55.7927 29.1454 56.532C29.5955 57.2712 29.8205 58.1574 29.8205 59.1904C29.8205 60.2329 29.5884 61.112 29.124 61.8275C28.6645 62.5431 28.0178 63.0833 27.1839 63.4482C26.3548 63.8131 25.3859 63.9955 24.2772 63.9955H20.5248V60.9248H23.4813C23.9456 60.9248 24.3412 60.8679 24.6681 60.7542C24.9997 60.6357 25.2532 60.4485 25.4285 60.1927C25.6086 59.9368 25.6986 59.6027 25.6986 59.1904C25.6986 58.7734 25.6086 58.4346 25.4285 58.174C25.2532 57.9086 24.9997 57.7143 24.6681 57.5911C24.3412 57.4631 23.9456 57.3992 23.4813 57.3992H22.0883V68.8006H18.137ZM26.6651 62.119L30.3038 68.8006H26.0113L22.4579 62.119H26.6651Z" fill="white"/>
<path d="M4 57.4276V54.2432H16.6501V57.4276H12.2723V68.8006H8.37778V57.4276H4Z" fill="white"/>
</g>
<defs>
<filter id="filter0_d_11996_94" x="0" y="0" width="263" height="77" filterUnits="userSpaceOnUse" color-interpolation-filters="sRGB">
<feFlood flood-opacity="0" result="BackgroundImageFix"/>
<feColorMatrix in="SourceAlpha" type="matrix" values="0 0 0 0 0 0 0 0 0 0 0 0 0 0 0 0 0 0 127 0" result="hardAlpha"/>
<feOffset dy="4"/>
<feGaussianBlur stdDeviation="2"/>
<feComposite in2="hardAlpha" operator="out"/>
<feColorMatrix type="matrix" values="0 0 0 0 0 0 0 0 0 0 0 0 0 0 0 0 0 0 0.25 0"/>
<feBlend mode="normal" in2="BackgroundImageFix" result="effect1_dropShadow_11996_94"/>
<feBlend mode="normal" in="SourceGraphic" in2="effect1_dropShadow_11996_94" result="shape"/>
</filter>
<clipPath id="clip0_11996_94">
<rect width="255" height="69" fill="white" transform="translate(4)"/>
</clipPath>
</defs>
</svg>
